<?xml version="1.0" encoding="utf-8"?>
<!-- Generator: Adobe Illustrator 19.2.1, SVG Export Plug-In . SVG Version: 6.00 Build 0)  -->
<!DOCTYPE svg PUBLIC "-//W3C//DTD SVG 1.1//EN" "http://www.w3.org/Graphics/SVG/1.1/DTD/svg11.dtd">
<svg version="1.1" id="Layer_1" xmlns="http://www.w3.org/2000/svg" xmlns:xlink="http://www.w3.org/1999/xlink" x="0px" y="0px"
	 viewBox="0 0 216 32" style="enable-background:new 0 0 216 32;" xml:space="preserve">
<style type="text/css">
	.st0{fill:#FFFFFF;}
</style>
<g>
	<path class="st0" d="M13.1,8.8c0-1.1-0.6-2.2-2.6-2.2c-1.6-0.1-2.4,1-2.4,2c0,1.3,1.6,2,3.6,2.6c3.4,0.9,7,1.9,7.1,6.4
		c0.1,4.3-3.6,7-8,7c-3.3,0-7.7-1.7-8-6.7h5c0.2,2.2,2.1,2.7,3.1,2.7c1.6,0,2.9-1,2.9-2.4c0-1.8-1.6-2.3-5.4-3.6
		c-3-0.9-5.3-2.5-5.3-5.5c0-4.1,3.5-6.6,7.6-6.6c2.8,0,7.1,1.3,7.5,6.3L13.1,8.8L13.1,8.8z"/>
	<path class="st0" d="M20.8,3.1h4.7c0,0.9,0,1.8,0,2.8c0.9-1.6,2.8-3.5,6.6-3.4c6.9,0,8.2,5.2,8.2,8.9V24h-5V12.7
		c0-3.1-1-5.5-4.6-5.5s-4.8,2.4-4.8,5.3V24h-5L20.8,3.1L20.8,3.1z"/>
	<path class="st0" d="M46.9,13.7c0,2.6,1.9,6.3,6.4,6.3c2.8,0,4.6-1.4,5.6-3.3c0.5-0.9,0.7-1.9,0.8-2.9c0-1-0.2-2-0.6-2.9
		c-0.9-2-2.8-3.7-5.9-3.7C49.2,7.1,46.9,10.4,46.9,13.7L46.9,13.7z M64.7,24h-5v-3c-1.3,2.4-4.1,3.6-7.1,3.6
		c-6.7,0-10.7-5.2-10.7-11.1c0-6.6,4.8-11,10.7-11c3.8,0,6.2,2,7.1,3.7v-3h5V24z"/>
	<path class="st0" d="M85.5,13.5c0-3-2.2-6.4-6.4-6.4c-1.8,0-3.4,0.7-4.6,1.9c-1.1,1.1-1.8,2.8-1.8,4.6s0.7,3.4,1.8,4.5
		c1.2,1.1,2.8,1.9,4.6,1.9C82.9,20,85.5,17,85.5,13.5L85.5,13.5z M67.9,3.1h4.7v3C74.1,4,76.5,2.4,80,2.4c7.4,0,10.5,6.2,10.5,11.2
		c0,5.9-4.3,10.9-10.4,10.9c-4.1,0-6.3-2.1-7.2-3.4v2.8V32h-5V3.1z"/>
	<path class="st0" d="M102.3,8.8c0-1.1-0.6-2.2-2.6-2.2c-1.7,0-2.5,1.1-2.5,2.1c0,1.3,1.6,2,3.6,2.6c3.4,0.9,7,1.9,7.1,6.4
		c0.1,4.3-3.6,7-8,7c-3.3,0-7.7-1.7-8-6.7h5c0.2,2.2,2.1,2.7,3.1,2.7c1.6,0,2.9-1,2.9-2.4c0-1.8-1.6-2.3-5.4-3.6
		c-2.8-0.9-5.1-2.4-5.2-5.4c0-4.1,3.5-6.6,7.6-6.6c2.8,0,7.1,1.3,7.5,6.3h-5.1V8.8L102.3,8.8z"/>
	<path class="st0" d="M131.8,15.5c-0.8,4.7-4.7,8.6-10.1,9.1c-6.6,0.5-11.6-4.2-12.1-10.2c-0.5-6.1,3.9-11.4,10.1-11.9
		c5.3-0.4,10,2.5,11.7,7.5l-5.2,0.4c-1.1-2.1-3.2-3.5-6-3.3c-1.8,0.1-3.2,0.9-4.3,2.1c-1,1.2-1.5,2.9-1.3,4.8
		c0.3,3.7,3.2,6.2,6.7,5.9c3.1-0.3,4.7-2.3,5.4-4L131.8,15.5z"/>
	<path class="st0" d="M162.4,10.9c-0.3-1.9-2.7-4.5-6.3-4.2c-3.7,0.3-5.5,3.1-5.5,5.2L162.4,10.9z M150.8,15.7
		c0.5,3.3,3.6,4.9,6.5,4.6c2.4-0.2,4-1.4,4.8-3.2l5.2-0.4c-0.8,2.4-2.1,4.2-3.8,5.6s-3.7,2.1-5.8,2.3c-6.5,0.5-11.5-4.3-12-10.1
		c-0.5-5.9,3.7-11.5,10.1-12c3.1-0.3,6,0.7,8.1,2.5c2.8,2.4,4,5.6,3.9,9.2L150.8,15.7z"/>
	<path class="st0" d="M186.1,10.9c-0.4-1.9-2.7-4.5-6.4-4.2s-5.5,3.1-5.5,5.2L186.1,10.9z M174.4,15.7c0.5,3.3,3.6,4.9,6.5,4.6
		c2.4-0.2,4-1.4,4.8-3.2l5.2-0.4c-0.8,2.4-2.1,4.2-3.8,5.6c-1.7,1.4-3.7,2.1-5.8,2.3c-6.5,0.5-11.5-4.3-12-10.1
		c-0.5-5.9,3.7-11.5,10.1-12c3.1-0.3,6,0.7,8.1,2.5c2.8,2.4,4,5.6,3.9,9.2L174.4,15.7z"/>
	<path class="st0" d="M193.3,3.2h4.7c0,0.9,0,1.8,0,2.8c0.9-1.6,2.8-3.5,6.6-3.4c6.9,0,8.2,5.2,8.2,8.9v12.6h-5V12.7
		c0-3.1-1-5.5-4.6-5.5s-4.8,2.4-4.8,5.3V24h-5L193.3,3.2L193.3,3.2z"/>
	<path class="st0" d="M147.7,3.4c-1.6-0.9-3.4-0.9-3.4-0.9c-3.2,0-4.9,1.5-5.8,3.4V3.2h-4.8V24h5V12.7c0-3.6,1.8-5.2,5.3-5.2
		c0.4,0,0.8,0.1,1,0.1C145.6,6.1,146.6,4.6,147.7,3.4"/>
</g>
</svg>
